<svg width="32" height="32" viewBox="0 0 32 32" fill="none" xmlns="http://www.w3.org/2000/svg">
<path fill-rule="evenodd" clip-rule="evenodd" d="M19.5254 16.4298C19.5254 15.896 19.1506 15.4382 18.6589 15.4576C18.2927 15.4721 17.8142 15.5153 17.446 15.6403C17.126 15.7489 16.7659 15.9612 16.4853 16.1454C16.2222 16.3181 15.8947 16.3267 15.628 16.1668C15.3079 15.9748 14.8866 15.7472 14.5211 15.6378C14.2121 15.5454 13.8212 15.5009 13.5038 15.4788C13.0026 15.4439 12.6102 15.9065 12.6102 16.4533V20.519C12.6102 21.0794 13.0102 21.5169 13.4844 21.5505C13.7928 21.5724 14.1398 21.6145 14.398 21.6918C14.7173 21.7873 15.1121 21.9998 15.4308 22.1924C15.8275 22.4322 16.3081 22.4322 16.7048 22.1924C17.0235 21.9998 17.4183 21.7873 17.7376 21.6918C17.9958 21.6145 18.3428 21.5724 18.6512 21.5505C19.1254 21.5169 19.5254 21.0794 19.5254 20.519V16.4298ZM18.6757 16.0045C18.8734 15.9966 19.043 16.1811 19.043 16.4298V20.519C19.043 20.7692 18.8602 20.9875 18.6211 21.0044C18.3058 21.0268 17.9202 21.0712 17.6144 21.1627C17.238 21.2754 16.802 21.5136 16.4778 21.7096C16.4237 21.7423 16.3671 21.7681 16.309 21.7869V16.7978C16.4545 16.7647 16.596 16.705 16.727 16.619C17.0006 16.4394 17.3205 16.254 17.5844 16.1645C17.8897 16.0608 18.3158 16.0187 18.6757 16.0045ZM15.8266 16.8098C15.6802 16.784 15.5368 16.731 15.4025 16.6505C15.0884 16.4621 14.7075 16.2595 14.398 16.1669C14.1368 16.0887 13.7849 16.0466 13.4742 16.025C13.2703 16.0107 13.0926 16.199 13.0926 16.4533V20.519C13.0926 20.7692 13.2754 20.9875 13.5145 21.0044C13.8297 21.0268 14.2154 21.0712 14.5211 21.1627C14.8976 21.2754 15.3336 21.5136 15.6578 21.7096C15.7119 21.7423 15.7685 21.7681 15.8266 21.7869V16.8098Z" fill="black"/>
<path fill-rule="evenodd" clip-rule="evenodd" d="M15.2953 5.6967L15.102 5.16402L14.9833 5.06889C14.6102 4.76979 14.3729 4.31199 14.3729 3.7984C14.3729 2.89977 15.1014 2.17128 16 2.17128C16.8986 2.17128 17.6271 2.89977 17.6271 3.7984C17.6271 4.31199 17.3898 4.76979 17.0167 5.06889L16.898 5.16402L16.7046 5.6967H15.2953ZM14.9153 6.23908H17.0847L17.3559 5.49205C17.8519 5.09445 18.1695 4.48352 18.1695 3.7984C18.1695 2.60022 17.1982 1.62891 16 1.62891C14.8018 1.62891 13.8305 2.60022 13.8305 3.7984C13.8305 4.48352 14.1481 5.09445 14.6441 5.49205L14.9153 6.23908ZM16.8136 7.05263V6.51026H15.1864V7.05263H16.8136Z" fill="black"/>
<path d="M7.35444 24.6543L16 9.67969L24.6456 24.6543H7.35444Z" stroke="black"/>
<circle cx="16" cy="16" r="15.5" stroke="black"/>
</svg>
